<svg width="16" height="16" viewBox="0 0 16 16" fill="none" xmlns="http://www.w3.org/2000/svg">
<path d="M8.27158 11.5673C8.1591 11.6903 8.00008 11.7604 7.83338 11.7604C7.66668 11.7604 7.50766 11.6903 7.39517 11.5673L4.2285 8.10377C4.00723 7.86176 4.02405 7.48619 4.26606 7.26492C4.50808 7.04365 4.88364 7.06047 5.10491 7.30248L7.23963 9.63732V0.875C7.23963 0.547081 7.50546 0.28125 7.83338 0.28125C8.16129 0.28125 8.42713 0.547081 8.42713 0.875V9.63732L10.5618 7.30248C10.7831 7.06047 11.1587 7.04365 11.4007 7.26492C11.6427 7.48619 11.6595 7.86175 11.4382 8.10377L8.27158 11.5673Z" fill="#DCE8F1"/>
<path d="M1.30213 10.375C1.30213 10.0471 1.03629 9.78125 0.708375 9.78125C0.380456 9.78125 0.114624 10.0471 0.114624 10.375V10.4184C0.114608 11.5011 0.114596 12.3738 0.206873 13.0601C0.302677 13.7727 0.507635 14.3727 0.984152 14.8492C1.46067 15.3257 2.06065 15.5307 2.77324 15.6265C3.45959 15.7188 4.33226 15.7188 5.41494 15.7188H10.2518C11.3345 15.7188 12.2072 15.7188 12.8935 15.6265C13.6061 15.5307 14.2061 15.3257 14.6826 14.8492C15.1591 14.3727 15.3641 13.7727 15.4599 13.0601C15.5522 12.3738 15.5521 11.5011 15.5521 10.4184V10.375C15.5521 10.0471 15.2863 9.78125 14.9584 9.78125C14.6305 9.78125 14.3646 10.0471 14.3646 10.375C14.3646 11.5114 14.3634 12.3039 14.283 12.9019C14.2049 13.4828 14.062 13.7904 13.8429 14.0095C13.6238 14.2286 13.3162 14.3715 12.7353 14.4496C12.1373 14.53 11.3447 14.5312 10.2084 14.5312H5.45838C4.322 14.5312 3.52946 14.53 2.93147 14.4496C2.35056 14.3715 2.04295 14.2286 1.82384 14.0095C1.60474 13.7904 1.46188 13.4828 1.38378 12.9019C1.30339 12.3039 1.30213 11.5114 1.30213 10.375Z" fill="#DCE8F1"/>
</svg>
