<svg width="19" height="20" viewBox="0 0 19 20" fill="none" xmlns="http://www.w3.org/2000/svg">
<g clip-path="url(#clip0_2_571)">
<path d="M7.20496 19.2552V12.9377H5.24638V10.0347H7.20496V8.78383C7.20496 5.54988 8.66796 4.05125 11.8425 4.05125C12.16 4.05125 12.5986 4.0845 13.0047 4.13279C13.3089 4.16409 13.6107 4.21567 13.908 4.28717V6.91946C13.7361 6.90343 13.5637 6.89392 13.391 6.89096C13.1977 6.88594 13.0042 6.88356 12.8108 6.88384C12.251 6.88384 11.814 6.95984 11.4847 7.12846C11.2633 7.23954 11.0772 7.41004 10.9472 7.62088C10.7429 7.95338 10.6511 8.40859 10.6511 9.00788V10.0347H13.7536L13.448 11.6995L13.2208 12.9377H10.6511V19.465C15.3552 18.8966 19 14.8915 19 10.0347C19 4.78829 14.7464 0.534668 9.5 0.534668C4.25363 0.534668 0 4.78829 0 10.0347C0 14.4902 3.06692 18.2284 7.20496 19.2552Z" fill="#DCE8F1"/>
</g>
<defs>
<clipPath id="clip0_2_571">
<rect width="19" height="19" fill="white" transform="translate(0 0.5)"/>
</clipPath>
</defs>
</svg>
