<svg width="19" height="20" viewBox="0 0 19 20" fill="none" xmlns="http://www.w3.org/2000/svg">
<g clip-path="url(#clip0_2_575)">
<path d="M5.56548 0.566513C4.55468 0.614172 3.86443 0.775513 3.26094 1.01254C2.63647 1.25598 2.10709 1.58254 1.58039 2.11113C1.05377 2.63973 0.729348 3.16943 0.487731 3.79501C0.253873 4.39968 0.0953813 5.09057 0.0507313 6.10193C0.00608126 7.11328 -0.00381458 7.43842 0.00117292 10.0183C0.00608126 12.598 0.0174813 12.9214 0.0664854 13.9349C0.114777 14.9455 0.275485 15.6356 0.51259 16.2392C0.756423 16.8638 1.08259 17.3929 1.61142 17.9198C2.14018 18.4466 2.66949 18.7703 3.29649 19.0123C3.90069 19.2458 4.59173 19.405 5.60293 19.4493C6.61412 19.4936 6.93958 19.5039 9.51867 19.4989C12.0978 19.494 12.4225 19.4825 13.4357 19.4345C14.449 19.3864 15.1354 19.2245 15.7393 18.9885C16.3638 18.7442 16.8934 18.4185 17.4198 17.8896C17.9463 17.3606 18.2705 16.8305 18.5119 16.2046C18.746 15.6004 18.9051 14.9095 18.9489 13.899C18.9933 12.8849 19.0037 12.5612 18.9988 9.9818C18.9938 7.40232 18.9822 7.07892 18.9341 6.06583C18.8861 5.05273 18.7251 4.36477 18.4882 3.76073C18.244 3.13618 17.9182 2.60743 17.3897 2.08018C16.8611 1.55293 16.3305 1.22898 15.7049 0.988076C15.1002 0.754138 14.4097 0.594776 13.3985 0.551076C12.3873 0.507376 12.0618 0.496055 9.48178 0.501122C6.90174 0.50603 6.57874 0.517113 5.56548 0.566513ZM5.67647 17.7402C4.75022 17.6999 4.24728 17.546 3.91209 17.4172C3.46828 17.2462 3.15209 17.0395 2.81808 16.7087C2.484 16.3779 2.27888 16.0606 2.10558 15.6178C1.97543 15.2826 1.81868 14.7802 1.77538 13.8539C1.72827 12.8529 1.71838 12.5523 1.71284 10.0159C1.70729 7.47966 1.71703 7.17938 1.76089 6.17793C1.80047 5.25247 1.95532 4.74897 2.08389 4.41393C2.25489 3.96957 2.46088 3.65393 2.79243 3.32017C3.12398 2.98632 3.44033 2.78073 3.88359 2.60743C4.21846 2.47673 4.72077 2.32132 5.64663 2.27723C6.64848 2.22973 6.94868 2.22023 9.48463 2.21468C12.0206 2.20914 12.3216 2.21864 13.3238 2.26282C14.2493 2.30303 14.753 2.45638 15.0876 2.58582C15.5316 2.75682 15.8476 2.96218 16.1814 3.29436C16.5153 3.62638 16.721 3.94163 16.8943 4.38583C17.0252 4.71968 17.1807 5.22183 17.2244 6.14832C17.272 7.15017 17.2829 7.45061 17.2874 9.98632C17.292 12.522 17.283 12.8232 17.2391 13.8243C17.1987 14.7506 17.0451 15.2537 16.9161 15.5893C16.7451 16.0329 16.539 16.3493 16.2072 16.6829C15.8755 17.0166 15.5596 17.2221 15.1161 17.3954C14.7817 17.5259 14.2787 17.6817 13.3537 17.7258C12.3517 17.7729 12.0515 17.7828 9.51463 17.7884C6.97774 17.7939 6.67833 17.7836 5.67647 17.7402ZM13.4211 4.92258C13.4215 5.14807 13.4887 5.36838 13.6143 5.55566C13.7399 5.74293 13.9182 5.88875 14.1267 5.97467C14.3352 6.06059 14.5645 6.08276 14.7856 6.03836C15.0066 5.99397 15.2096 5.88501 15.3687 5.72527C15.5279 5.56552 15.6361 5.36217 15.6796 5.14093C15.7232 4.91968 15.7002 4.69049 15.6135 4.48234C15.5268 4.27418 15.3803 4.09641 15.1925 3.97152C15.0048 3.84662 14.7842 3.78021 14.5587 3.78068C14.2565 3.78131 13.9668 3.90195 13.7535 4.11609C13.5402 4.33022 13.4206 4.62032 13.4211 4.92258ZM4.62213 10.0095C4.62744 12.7037 6.81552 14.8828 9.50909 14.8777C12.2028 14.8726 14.3834 12.6847 14.3783 9.99051C14.3732 7.29631 12.1846 5.11662 9.49057 5.12192C6.79652 5.12723 4.61706 7.31563 4.62213 10.0095ZM6.33332 10.0061C6.33208 9.37981 6.51659 8.7672 6.86352 8.24576C7.21045 7.72432 7.7042 7.31747 8.28236 7.07665C8.86051 6.83583 9.49709 6.77185 10.1116 6.89282C10.7261 7.01379 11.291 7.31426 11.7347 7.75624C12.1784 8.19823 12.4812 8.76187 12.6046 9.37589C12.728 9.98992 12.6665 10.6267 12.428 11.2059C12.1895 11.785 11.7846 12.2803 11.2645 12.6293C10.7445 12.9783 10.1326 13.1653 9.50632 13.1665C9.09045 13.1674 8.67848 13.0863 8.29394 12.928C7.9094 12.7696 7.55982 12.5371 7.26517 12.2436C6.97052 11.9501 6.73657 11.6014 6.57668 11.2175C6.41679 10.8336 6.3341 10.422 6.33332 10.0061Z" fill="#DCE8F1"/>
</g>
<defs>
<clipPath id="clip0_2_575">
<rect width="19" height="19" fill="white" transform="translate(0 0.5)"/>
</clipPath>
</defs>
</svg>
