<svg width="19" height="20" viewBox="0 0 19 20" fill="none" xmlns="http://www.w3.org/2000/svg">
<path d="M16.1872 16.6912H13.3736V12.2824C13.3736 11.231 13.3523 9.87808 11.9075 9.87808C10.4405 9.87808 10.2165 11.022 10.2165 12.2048V16.6912H7.40287V7.625H10.1056V8.86079H10.142C10.5197 8.14829 11.438 7.39621 12.81 7.39621C15.6608 7.39621 16.188 9.27246 16.188 11.7148L16.1872 16.6912ZM4.22512 6.38446C3.31946 6.38446 2.59192 5.65138 2.59192 4.74967C2.59192 3.84875 3.32025 3.11646 4.22512 3.11646C5.12762 3.11646 5.85913 3.84875 5.85913 4.74967C5.85913 5.65138 5.12683 6.38446 4.22512 6.38446ZM5.63588 16.6912H2.81438V7.625H5.63588V16.6912ZM17.5948 0.5H1.40204C0.627 0.5 0 1.11275 0 1.86879V18.1312C0 18.888 0.627 19.5 1.40204 19.5H17.5924C18.3667 19.5 19 18.888 19 18.1312V1.86879C19 1.11275 18.3667 0.5 17.5924 0.5H17.5948Z" fill="#DCE8F1"/>
</svg>
