<svg width="96" height="96" viewBox="0 0 96 96" fill="none" xmlns="http://www.w3.org/2000/svg">
<path fill-rule="evenodd" clip-rule="evenodd" d="M36.8258 12.7277C35.8173 13.0471 34.8213 13.4103 33.8407 13.8165C29.3517 15.6759 25.2728 18.4013 21.8371 21.837C18.4013 25.2728 15.6759 29.3517 13.8165 33.8407C12.3408 37.4033 11.4335 41.1688 11.1218 45H29.0437C29.1718 40.6164 29.5799 36.2964 30.2583 32.2023C31.09 27.1823 32.3189 22.5566 33.9009 18.6016C34.7646 16.4423 35.7404 14.4657 36.8258 12.7277ZM48 5C42.3532 5 36.7616 6.11223 31.5446 8.27318C26.3276 10.4341 21.5873 13.6015 17.5944 17.5944C13.6015 21.5873 10.4341 26.3276 8.27318 31.5446C6.11223 36.7616 5 42.3532 5 48C5 53.6468 6.11223 59.2384 8.27318 64.4554C10.4341 69.6724 13.6015 74.4127 17.5944 78.4056C21.5873 82.3985 26.3276 85.5659 31.5446 87.7268C36.7616 89.8878 42.3532 91 48 91C53.6468 91 59.2384 89.8878 64.4554 87.7268C69.6724 85.5659 74.4127 82.3985 78.4056 78.4056C82.3985 74.4127 85.5659 69.6724 87.7268 64.4554C89.8878 59.2384 91 53.6468 91 48C91 42.3532 89.8878 36.7616 87.7268 31.5446C85.5659 26.3276 82.3985 21.5873 78.4056 17.5944C74.4127 13.6015 69.6724 10.4341 64.4554 8.27318C59.2384 6.11223 53.6468 5 48 5ZM48 11C46.955 11 45.6049 11.5032 44.0351 13.1288C42.4537 14.7664 40.8705 17.333 39.4717 20.8299C38.0823 24.3036 36.954 28.4969 36.1776 33.183C35.5546 36.9428 35.1726 40.9325 35.0465 45L60.9535 45C60.8274 40.9325 60.4454 36.9428 59.8224 33.183C59.046 28.497 57.9178 24.3036 56.5283 20.8299C55.1295 17.333 53.5464 14.7664 51.9649 13.1288C50.3951 11.5032 49.045 11 48 11ZM66.9563 45C66.8282 40.6164 66.4201 36.2964 65.7417 32.2023C64.91 27.1823 63.6811 22.5566 62.0991 18.6016C61.2354 16.4423 60.2596 14.4657 59.1742 12.7277C60.1827 13.0471 61.1787 13.4103 62.1593 13.8165C66.6483 15.6759 70.7272 18.4013 74.163 21.8371C77.5987 25.2728 80.3241 29.3517 82.1835 33.8407C83.6592 37.4033 84.5665 41.1688 84.8782 45H66.9563ZM60.9535 51L35.0465 51C35.1726 55.0675 35.5546 59.0572 36.1776 62.817C36.954 67.5031 38.0822 71.6964 39.4717 75.1701C40.8705 78.667 42.4536 81.2336 44.0351 82.8712C45.6049 84.4968 46.955 85 48 85C49.045 85 50.3951 84.4968 51.9649 82.8712C53.5464 81.2336 55.1295 78.667 56.5283 75.1701C57.9178 71.6964 59.046 67.5031 59.8224 62.817C60.4454 59.0572 60.8274 55.0675 60.9535 51ZM59.1742 83.2723C60.2596 81.5343 61.2354 79.5577 62.0991 77.3984C63.6811 73.4434 64.91 68.8177 65.7417 63.7977C66.4201 59.7036 66.8282 55.3836 66.9563 51H84.8782C84.5665 54.8312 83.6592 58.5967 82.1835 62.1593C80.3241 66.6483 77.5987 70.7272 74.1629 74.1629C70.7272 77.5987 66.6483 80.3241 62.1593 82.1835C61.1787 82.5897 60.1827 82.9528 59.1742 83.2723ZM36.8258 83.2723C35.7404 81.5343 34.7646 79.5577 33.9009 77.3984C32.3189 73.4434 31.09 68.8177 30.2583 63.7977C29.5799 59.7036 29.1718 55.3836 29.0437 51H11.1218C11.4335 54.8312 12.3408 58.5967 13.8165 62.1593C15.6759 66.6483 18.4013 70.7272 21.837 74.1629C25.2728 77.5987 29.3517 80.3241 33.8407 82.1835C34.8213 82.5897 35.8173 82.9528 36.8258 83.2723Z" fill="url(#paint0_linear_231_785)"/>
<defs>
<linearGradient id="paint0_linear_231_785" x1="5" y1="48" x2="91" y2="48" gradientUnits="userSpaceOnUse">
<stop stop-color="#EF4036"/>
<stop offset="0.5" stop-color="#F05A28"/>
<stop offset="1" stop-color="#F7931D"/>
</linearGradient>
</defs>
</svg>
