<svg width="96" height="97" viewBox="0 0 96 97" fill="none" xmlns="http://www.w3.org/2000/svg">
<path fill-rule="evenodd" clip-rule="evenodd" d="M43.7852 5.5H52.2148C56.7461 5.49991 60.449 5.49983 63.3725 5.89287C66.4283 6.30372 69.0776 7.19284 71.1924 9.30762C73.3072 11.4224 74.1963 14.0717 74.6071 17.1275C74.8092 18.6304 74.9073 20.3392 74.955 22.2606C79.1879 22.9435 82.657 24.2877 85.435 27.0658C88.4285 30.0592 89.757 33.855 90.3875 38.5447C91.0001 43.1015 91.0001 48.9241 91 56.2751V56.7264C91.0001 64.0775 91.0001 69.9 90.3875 74.4569C89.757 79.1466 88.4285 82.9424 85.435 85.9358C82.4416 88.9293 78.6458 90.2577 73.9561 90.8882C69.3992 91.5009 63.5767 91.5008 56.2256 91.5008H39.7744C32.4233 91.5008 26.6008 91.5009 22.0439 90.8882C17.3542 90.2577 13.5584 88.9293 10.565 85.9358C7.57152 82.9424 6.24305 79.1466 5.61254 74.4569C4.99989 69.9 4.99994 64.0775 5 56.7264V56.2751C4.99994 48.9241 4.99989 43.1015 5.61254 38.5447C6.24305 33.855 7.57152 30.0592 10.565 27.0657C13.343 24.2877 16.8121 22.9435 21.045 22.2606C21.0927 20.3392 21.1908 18.6304 21.3929 17.1275C21.8037 14.0717 22.6928 11.4224 24.8076 9.30762C26.9224 7.19284 29.5717 6.30372 32.6275 5.89287C35.551 5.49983 39.2539 5.49991 43.7852 5.5ZM21 28.3645C18.076 28.9515 16.223 29.893 14.8076 31.3084C13.1148 33.0012 12.1001 35.3198 11.559 39.3442C11.0064 43.4548 11 48.8735 11 56.5008C11 64.1281 11.0064 69.5467 11.559 73.6574C12.1001 77.6817 13.1148 80.0003 14.8076 81.6932C16.5005 83.386 18.819 84.4007 22.8434 84.9417C26.9541 85.4944 32.3727 85.5008 40 85.5008H56C63.6273 85.5008 69.0459 85.4944 73.1566 84.9417C77.181 84.4007 79.4995 83.386 81.1924 81.6932C82.8852 80.0003 83.8999 77.6817 84.441 73.6574C84.9936 69.5467 85 64.1281 85 56.5008C85 48.8735 84.9936 43.4548 84.441 39.3442C83.8999 35.3198 82.8852 33.0012 81.1924 31.3084C79.777 29.893 77.924 28.9515 75 28.3645V33.006C75 33.1906 75.0002 33.3729 75.0004 33.5531C75.0037 36.6973 75.0064 39.1878 73.9615 41.4187C72.9166 43.6497 71.0016 45.242 68.584 47.2523C68.4455 47.3675 68.3053 47.4841 68.1635 47.6022L65.1347 50.1262C61.5892 53.0809 58.7156 55.4757 56.1793 57.1069C53.5373 58.8061 50.9643 59.8795 48 59.8795C45.0357 59.8795 42.4627 58.8061 39.8207 57.1069C37.2845 55.4757 34.4109 53.081 30.8655 50.1264L27.8365 47.6022C27.6947 47.4841 27.5546 47.3675 27.416 47.2523C24.9984 45.242 23.0834 43.6497 22.0385 41.4187C20.9936 39.1878 20.9963 36.6973 20.9996 33.553C20.9998 33.3729 21 33.1905 21 33.006L21 28.3645ZM33.427 11.8394C31.0366 12.1608 29.8644 12.7361 29.0503 13.5503C28.2361 14.3644 27.6608 15.5366 27.3394 17.927C27.0064 20.4038 27 23.7012 27 28.5V33.006C27 36.9712 27.0663 38.0074 27.4721 38.8738C27.8778 39.7401 28.6314 40.4544 31.6776 42.9929L34.5561 45.3917C38.288 48.5015 40.8789 50.6537 43.0663 52.0605C45.1838 53.4224 46.6197 53.8795 48 53.8795C49.3803 53.8795 50.8162 53.4224 52.9337 52.0605C55.1211 50.6537 57.712 48.5015 61.4439 45.3917L64.3224 42.9929C67.3686 40.4544 68.1222 39.7401 68.528 38.8738C68.9337 38.0074 69 36.9712 69 33.006V28.5C69 23.7012 68.9936 20.4038 68.6606 17.927C68.3392 15.5366 67.7639 14.3644 66.9498 13.5503C66.1356 12.7361 64.9635 12.1608 62.573 11.8394C60.0962 11.5064 56.7989 11.5 52 11.5H44C39.2011 11.5 35.9038 11.5064 33.427 11.8394ZM37 24.5C37 22.8432 38.3431 21.5 40 21.5H56C57.6569 21.5 59 22.8432 59 24.5C59 26.1569 57.6569 27.5 56 27.5H40C38.3431 27.5 37 26.1569 37 24.5ZM41 36.5C41 34.8432 42.3432 33.5 44 33.5H52C53.6569 33.5 55 34.8432 55 36.5C55 38.1569 53.6569 39.5 52 39.5H44C42.3432 39.5 41 38.1569 41 36.5Z" fill="url(#paint0_linear_495_1528)"/>
<defs>
<linearGradient id="paint0_linear_495_1528" x1="5" y1="48.1691" x2="91.0008" y2="48.2959" gradientUnits="userSpaceOnUse">
<stop stop-color="#1B75BB"/>
<stop offset="0.5" stop-color="#27A9E1"/>
<stop offset="1" stop-color="#49C0B5"/>
</linearGradient>
</defs>
</svg>
