<svg width="96" height="97" viewBox="0 0 96 97" fill="none" xmlns="http://www.w3.org/2000/svg">
<path fill-rule="evenodd" clip-rule="evenodd" d="M24.0298 14.1274C30.7501 7.40716 42.0908 7.91804 46.77 16.3025L49.366 20.9542C52.4216 26.4295 51.1196 33.3378 46.6464 37.8657C46.5868 37.9474 46.2708 38.4071 46.2316 39.2103C46.1816 40.2356 46.5456 42.6068 50.2192 46.2804C53.8916 49.9528 56.2624 50.318 57.2884 50.268C58.0924 50.2288 58.5524 49.9132 58.634 49.8532C63.162 45.3804 70.0704 44.078 75.5456 47.1336L80.1972 49.73C88.5816 54.4092 89.0924 65.7496 82.3724 72.47C78.7776 76.0644 73.998 79.2584 68.3812 79.4716C60.0576 79.7872 46.2364 77.6376 32.5494 63.9504C18.8623 50.2632 16.7127 36.4422 17.0283 28.1185C17.2412 22.5018 20.4352 17.7221 24.0298 14.1274ZM41.5308 19.2265C39.1345 14.9331 32.6958 13.9468 28.2725 18.3701C25.1711 21.4715 23.1548 24.8947 23.024 28.3458C22.7608 35.2872 24.4746 47.3904 36.7921 59.7076C49.1096 72.0252 61.2124 73.7388 68.154 73.4756C71.6052 73.3448 75.0284 71.3288 78.1296 68.2272C82.5528 63.804 81.5664 57.3652 77.2732 54.9692L72.6216 52.3732C69.728 50.758 65.6632 51.3092 62.81 54.1624C62.5296 54.4424 60.7456 56.1072 57.58 56.2612C54.3388 56.4188 50.416 54.9624 45.9768 50.5232C41.536 46.0824 40.08 42.1584 40.2388 38.9169C40.394 35.7508 42.0588 33.9684 42.3372 33.6898C45.1904 30.8366 45.7416 26.7719 44.1268 23.8782L41.5308 19.2265Z" fill="url(#paint0_linear_495_1538)"/>
<defs>
<linearGradient id="paint0_linear_495_1538" x1="17" y1="44.2333" x2="86.9944" y2="44.3365" gradientUnits="userSpaceOnUse">
<stop stop-color="#1B75BB"/>
<stop offset="0.5" stop-color="#27A9E1"/>
<stop offset="1" stop-color="#49C0B5"/>
</linearGradient>
</defs>
</svg>
