<svg width="96" height="97" viewBox="0 0 96 97" fill="none" xmlns="http://www.w3.org/2000/svg">
<path fill-rule="evenodd" clip-rule="evenodd" d="M13 41.0732C13 21.4771 28.62 5.5 48 5.5C67.38 5.5 83 21.4771 83 41.0732C83 50.5336 80.3039 60.6916 75.5378 69.4674C70.7775 78.2325 63.8225 85.8489 55.122 89.9156C50.6023 92.0281 45.3977 92.0281 40.878 89.9156C32.1775 85.8489 25.2225 78.2325 20.4622 69.4674C15.6961 60.6916 13 50.5336 13 41.0732ZM48 11.5C32.0337 11.5 19 24.6899 19 41.0732C19 49.4615 21.4105 58.6416 25.7348 66.6039C30.065 74.577 36.1841 81.0985 43.4186 84.48C46.3282 85.84 49.6718 85.84 52.5814 84.48C59.8159 81.0985 65.935 74.577 70.2652 66.6039C74.5895 58.6416 77 49.4615 77 41.0732C77 24.6899 63.9663 11.5 48 11.5ZM48 31.5C43.0294 31.5 39 35.5294 39 40.5C39 45.4706 43.0294 49.5 48 49.5C52.9706 49.5 57 45.4706 57 40.5C57 35.5294 52.9706 31.5 48 31.5ZM33 40.5C33 32.2157 39.7157 25.5 48 25.5C56.2843 25.5 63 32.2157 63 40.5C63 48.7843 56.2843 55.5 48 55.5C39.7157 55.5 33 48.7843 33 40.5Z" fill="url(#paint0_linear_495_1533)"/>
<defs>
<linearGradient id="paint0_linear_495_1533" x1="13" y1="48.1687" x2="83.0007" y2="48.2528" gradientUnits="userSpaceOnUse">
<stop stop-color="#1B75BB"/>
<stop offset="0.5" stop-color="#27A9E1"/>
<stop offset="1" stop-color="#49C0B5"/>
</linearGradient>
</defs>
</svg>
