<svg width="230" height="231" viewBox="0 0 230 231" fill="none" xmlns="http://www.w3.org/2000/svg">
<path fill-rule="evenodd" clip-rule="evenodd" d="M115 29.4805C114.443 30.445 113.824 31.5557 113.094 32.8653L112.152 34.5554C112.085 34.6748 112.014 34.805 111.937 34.9446C111.185 36.3209 109.939 38.6001 107.86 40.1777C105.739 41.7882 103.187 42.3423 101.695 42.6663C101.545 42.6988 101.406 42.7289 101.28 42.7576L99.4502 43.1715C97.7715 43.5514 96.404 43.8613 95.2347 44.1551C95.9953 45.0913 96.9832 46.2538 98.2681 47.7564L99.5154 49.2148C99.6039 49.3183 99.7001 49.4292 99.8026 49.5472C100.837 50.7386 102.507 52.6623 103.279 55.1458C104.042 57.5999 103.779 60.1275 103.613 61.7221C103.597 61.8811 103.581 62.0309 103.567 62.1704L103.379 64.1163C103.204 65.9205 103.068 67.3605 102.978 68.5315C103.976 68.0916 105.112 67.569 106.462 66.9476L108.175 66.1589C108.293 66.1046 108.422 66.0436 108.562 65.9777C109.937 65.3292 112.33 64.2006 115 64.2006C117.671 64.2006 120.064 65.3291 121.439 65.9777C121.579 66.0436 121.708 66.1046 121.826 66.1589L123.539 66.9476C124.888 67.569 126.024 68.0916 127.023 68.5315C126.933 67.3605 126.797 65.9205 126.622 64.1163L126.433 62.1704C126.42 62.0309 126.404 61.8811 126.388 61.722C126.222 60.1275 125.958 57.5999 126.721 55.1458C127.494 52.6623 129.164 50.7386 130.198 49.5472C130.301 49.4292 130.397 49.3183 130.485 49.2148L131.733 47.7564C133.018 46.2537 134.005 45.0913 134.766 44.1551C133.597 43.8613 132.229 43.5514 130.551 43.1715L128.721 42.7576C128.594 42.7289 128.455 42.6988 128.306 42.6663C126.814 42.3423 124.262 41.7882 122.14 40.1777C120.062 38.6001 118.816 36.3209 118.063 34.9446C117.987 34.8051 117.916 34.6748 117.849 34.5554L116.907 32.8653C116.177 31.5557 115.557 30.445 115 29.4805ZM105.546 17.6465C107.196 15.4919 110.192 12.3792 115 12.3792C119.808 12.3792 122.804 15.4919 124.454 17.6464C126.029 19.7028 127.615 22.5494 129.241 25.4677C129.315 25.6004 129.389 25.7332 129.463 25.8661L130.405 27.5562C130.624 27.9482 130.796 28.2565 130.946 28.5203C131.208 28.5818 131.513 28.6508 131.893 28.737L133.723 29.1509C133.873 29.1848 134.023 29.2187 134.172 29.2525C137.314 29.9624 140.436 30.6679 142.833 31.6124C145.479 32.6553 149.066 34.6863 150.449 39.1321C151.807 43.4995 150.093 47.1988 148.596 49.5765C147.211 51.777 145.105 54.2378 142.95 56.7571C142.853 56.871 142.755 56.9849 142.658 57.099L141.41 58.5575C141.08 58.944 140.831 59.2354 140.621 59.4876C140.65 59.8358 140.689 60.2414 140.741 60.7839L140.93 62.7298C140.944 62.8782 140.959 63.0265 140.973 63.1746C141.301 66.5472 141.617 69.8065 141.501 72.4137C141.379 75.1473 140.723 79.2854 137.013 82.1021C133.185 85.0078 128.958 84.3745 126.277 83.6064C123.807 82.8987 120.888 81.5539 117.949 80.1995C117.808 80.1346 117.668 80.0698 117.527 80.005L115.814 79.2163C115.493 79.0687 115.23 78.9475 115 78.8436C114.771 78.9475 114.507 79.0687 114.187 79.2163L112.474 80.005C112.333 80.0698 112.192 80.1346 112.052 80.1995C109.112 81.5539 106.194 82.8987 103.724 83.6064C101.043 84.3745 96.8157 85.0078 92.988 82.1021C89.2777 79.2854 88.6216 75.1473 88.4998 72.4137C88.3837 69.8065 88.7002 66.5472 89.0277 63.1746C89.0421 63.0265 89.0565 62.8783 89.0709 62.7298L89.2594 60.7839C89.312 60.2414 89.3512 59.8358 89.3798 59.4876C89.1699 59.2355 88.9209 58.944 88.5904 58.5575L87.3431 57.099C87.2456 56.9849 87.148 56.8709 87.0506 56.7571C84.8952 54.2378 82.7899 51.777 81.4046 49.5765C79.9079 47.1989 78.194 43.4995 79.5521 39.1321C80.9346 34.6863 84.5217 32.6553 87.1681 31.6124C89.5647 30.6679 92.6868 29.9624 95.8284 29.2526C95.9782 29.2187 96.128 29.1848 96.2779 29.1509L98.1074 28.737C98.4881 28.6508 98.7927 28.5818 99.0546 28.5203C99.2051 28.2566 99.3771 27.9482 99.5956 27.5562L100.538 25.8661C100.612 25.7332 100.686 25.6004 100.76 25.4677C102.386 22.5494 103.972 19.7028 105.546 17.6465ZM104.944 89.0458H125.057C131.428 89.0454 136.918 89.0451 141.315 89.6362C146.026 90.2697 150.542 91.6981 154.206 95.3613C157.869 99.0245 159.297 103.541 159.931 108.252C160.522 112.649 160.522 118.139 160.521 124.51L160.521 148.15C162.089 147.675 163.709 147.357 165.353 147.136C169.749 146.545 175.239 146.545 181.611 146.546H182.557C188.928 146.545 194.418 146.545 198.815 147.136C203.526 147.77 208.042 149.198 211.706 152.861C215.369 156.525 216.797 161.041 217.431 165.752C218.022 170.149 218.022 175.639 218.021 182.01V211.233C218.021 215.203 214.803 218.421 210.834 218.421C206.864 218.421 203.646 215.203 203.646 211.233V182.483C203.646 175.504 203.631 170.992 203.184 167.668C202.765 164.55 202.088 163.573 201.541 163.026C200.994 162.479 200.017 161.802 196.899 161.383C193.575 160.936 189.063 160.921 182.084 160.921C175.104 160.921 170.592 160.936 167.268 161.383C164.151 161.802 163.174 162.479 162.626 163.026C162.079 163.573 161.403 164.55 160.983 167.668C160.536 170.992 160.521 175.504 160.521 182.483V211.233C160.521 215.203 157.303 218.421 153.334 218.421C149.364 218.421 146.146 215.203 146.146 211.233L146.146 182.01C146.146 181.696 146.146 181.385 146.146 181.075V124.983C146.146 118.004 146.131 113.492 145.684 110.168C145.265 107.05 144.588 106.073 144.041 105.526C143.494 104.979 142.517 104.302 139.399 103.883C136.075 103.436 131.563 103.421 124.584 103.421H105.417C98.4374 103.421 93.9257 103.436 90.6015 103.883C87.484 104.302 86.5068 104.979 85.9597 105.526C85.4126 106.073 84.7359 107.05 84.3167 110.168C83.8698 113.492 83.8545 118.004 83.8545 124.983V209.826C83.8546 210.135 83.8546 210.447 83.8545 210.76L83.8545 211.233C83.8545 215.203 80.6366 218.421 76.667 218.421C72.6975 218.421 69.4795 215.203 69.4795 211.233C69.4795 204.254 69.4643 199.742 69.0173 196.418C68.5982 193.3 67.9215 192.323 67.3744 191.776C66.8272 191.229 65.8501 190.552 62.7326 190.133C59.4083 189.686 54.8967 189.671 47.917 189.671C40.9374 189.671 36.4257 189.686 33.1015 190.133C29.984 190.552 29.0068 191.229 28.4597 191.776C27.9126 192.323 27.2359 193.3 26.8167 196.418C26.3698 199.742 26.3545 204.254 26.3545 211.233C26.3545 215.203 23.1366 218.421 19.167 218.421C15.1975 218.421 11.9795 215.203 11.9795 211.233L11.9795 210.76C11.9792 204.389 11.9788 198.899 12.5699 194.502C13.2034 189.791 14.6318 185.275 18.295 181.611C21.9582 177.948 26.4745 176.52 31.186 175.886C35.5823 175.295 41.0723 175.295 47.4439 175.296H48.3901C54.7618 175.295 60.2517 175.295 64.648 175.886C66.2916 176.107 67.9114 176.425 69.4795 176.9L69.4795 124.51C69.4792 118.139 69.4788 112.649 70.0699 108.252C70.7034 103.541 72.1318 99.0245 75.795 95.3613C79.4582 91.6981 83.9745 90.2697 88.686 89.6362C93.0823 89.0451 98.5723 89.0454 104.944 89.0458Z" fill="url(#paint0_linear_266_848)"/>
<defs>
<linearGradient id="paint0_linear_266_848" x1="11.9795" y1="115.4" x2="218.021" y2="115.4" gradientUnits="userSpaceOnUse">
<stop stop-color="#652C90"/>
<stop offset="0.5" stop-color="#91268F"/>
<stop offset="1" stop-color="#D91B5B"/>
</linearGradient>
</defs>
</svg>
