<svg width="230" height="231" viewBox="0 0 230 231" fill="none" xmlns="http://www.w3.org/2000/svg">
<path d="M115 12.6443C118.97 12.6443 122.188 15.8622 122.188 19.8318V38.9985C122.188 42.968 118.97 46.186 115 46.186C111.031 46.186 107.813 42.968 107.813 38.9985V19.8318C107.813 15.8622 111.031 12.6443 115 12.6443Z" fill="url(#paint0_linear_419_644)"/>
<path fill-rule="evenodd" clip-rule="evenodd" d="M115 85.9439C105.691 79.0102 95.2306 78.0455 86.3363 82.1784C76.2197 86.8793 69.4795 97.621 69.4795 109.72C69.4795 121.399 74.3107 130.275 80.3679 137.208C85.1348 142.665 91.0131 147.261 95.8508 151.044C96.9101 151.873 97.9221 152.664 98.859 153.415C100.782 154.956 103.122 156.829 105.561 158.278C107.995 159.724 111.229 161.186 115 161.186C118.772 161.186 122.006 159.724 124.439 158.278C126.879 156.829 129.218 154.956 131.142 153.415C132.079 152.663 133.09 151.873 134.15 151.044C138.988 147.262 144.866 142.665 149.633 137.208C155.69 130.275 160.521 121.399 160.521 109.72C160.521 97.621 153.781 86.8793 143.664 82.1784C134.77 78.0455 124.31 79.0102 115 85.9439ZM92.3939 95.2148C87.6562 97.4162 83.8545 102.869 83.8545 109.72C83.8545 116.99 86.7271 122.638 91.1936 127.751C94.9746 132.079 99.5076 135.635 104.284 139.381C105.459 140.303 106.651 141.238 107.848 142.197C109.905 143.845 111.472 145.069 112.903 145.919C114.339 146.772 114.938 146.811 115 146.811C115.062 146.811 115.662 146.772 117.098 145.919C118.529 145.069 120.096 143.845 122.152 142.197C123.35 141.237 124.541 140.303 125.717 139.381C130.493 135.635 135.026 132.079 138.807 127.751C143.273 122.638 146.146 116.99 146.146 109.72C146.146 102.869 142.344 97.4162 137.607 95.2148C133.355 93.2394 127.017 93.3114 120.22 100.491C118.862 101.925 116.975 102.737 115 102.737C113.026 102.737 111.139 101.925 109.781 100.491C102.983 93.3114 96.6451 93.2394 92.3939 95.2148Z" fill="url(#paint1_linear_419_644)"/>
<path d="M122.188 192.332C122.188 188.362 118.97 185.144 115 185.144C111.031 185.144 107.813 188.362 107.813 192.332V211.498C107.813 215.468 111.031 218.686 115 218.686C118.97 218.686 122.188 215.468 122.188 211.498V192.332Z" fill="url(#paint2_linear_419_644)"/>
<path d="M11.9795 115.665C11.9795 111.696 15.1974 108.478 19.167 108.478H38.3337C42.3032 108.478 45.5212 111.696 45.5212 115.665C45.5212 119.635 42.3032 122.853 38.3337 122.853H19.167C15.1974 122.853 11.9795 119.635 11.9795 115.665Z" fill="url(#paint3_linear_419_644)"/>
<path d="M191.667 108.478C187.697 108.478 184.479 111.696 184.479 115.665C184.479 119.635 187.697 122.853 191.667 122.853H210.834C214.803 122.853 218.021 119.635 218.021 115.665C218.021 111.696 214.803 108.478 210.834 108.478H191.667Z" fill="url(#paint4_linear_419_644)"/>
<path d="M52.418 178.247C49.6111 175.441 49.6111 170.89 52.418 168.083L55.7055 164.795C58.5124 161.988 63.0633 161.988 65.8702 164.795C68.6771 167.602 68.6771 172.153 65.8702 174.96L62.5827 178.247C59.7758 181.054 55.2249 181.054 52.418 178.247Z" fill="url(#paint5_linear_419_644)"/>
<path d="M164.128 56.3724C161.322 59.1793 161.322 63.7301 164.128 66.537C166.935 69.3439 171.486 69.3439 174.293 66.537L177.583 63.2474C180.39 60.4406 180.39 55.8897 177.583 53.0828C174.776 50.2759 170.225 50.2759 167.418 53.0828L164.128 56.3724Z" fill="url(#paint6_linear_419_644)"/>
<path d="M177.583 178.247C180.39 175.441 180.39 170.89 177.583 168.083L174.295 164.795C171.488 161.988 166.937 161.988 164.13 164.795C161.324 167.602 161.324 172.153 164.13 174.96L167.418 178.247C170.225 181.054 174.776 181.054 177.583 178.247Z" fill="url(#paint7_linear_419_644)"/>
<path d="M65.8722 56.3724C68.6791 59.1793 68.6791 63.7301 65.8722 66.537C63.0653 69.3439 58.5145 69.3439 55.7076 66.537L52.418 63.2474C49.6111 60.4406 49.6111 55.8897 52.418 53.0828C55.2249 50.2759 59.7758 50.2759 62.5827 53.0828L65.8722 56.3724Z" fill="url(#paint8_linear_419_644)"/>
<defs>
<linearGradient id="paint0_linear_419_644" x1="11.9795" y1="115.665" x2="218.021" y2="115.665" gradientUnits="userSpaceOnUse">
<stop stop-color="#652C90"/>
<stop offset="0.5" stop-color="#91268F"/>
<stop offset="1" stop-color="#D91B5B"/>
</linearGradient>
<linearGradient id="paint1_linear_419_644" x1="11.9795" y1="115.665" x2="218.021" y2="115.665" gradientUnits="userSpaceOnUse">
<stop stop-color="#652C90"/>
<stop offset="0.5" stop-color="#91268F"/>
<stop offset="1" stop-color="#D91B5B"/>
</linearGradient>
<linearGradient id="paint2_linear_419_644" x1="11.9795" y1="115.665" x2="218.021" y2="115.665" gradientUnits="userSpaceOnUse">
<stop stop-color="#652C90"/>
<stop offset="0.5" stop-color="#91268F"/>
<stop offset="1" stop-color="#D91B5B"/>
</linearGradient>
<linearGradient id="paint3_linear_419_644" x1="11.9795" y1="115.665" x2="218.021" y2="115.665" gradientUnits="userSpaceOnUse">
<stop stop-color="#652C90"/>
<stop offset="0.5" stop-color="#91268F"/>
<stop offset="1" stop-color="#D91B5B"/>
</linearGradient>
<linearGradient id="paint4_linear_419_644" x1="11.9795" y1="115.665" x2="218.021" y2="115.665" gradientUnits="userSpaceOnUse">
<stop stop-color="#652C90"/>
<stop offset="0.5" stop-color="#91268F"/>
<stop offset="1" stop-color="#D91B5B"/>
</linearGradient>
<linearGradient id="paint5_linear_419_644" x1="11.9795" y1="115.665" x2="218.021" y2="115.665" gradientUnits="userSpaceOnUse">
<stop stop-color="#652C90"/>
<stop offset="0.5" stop-color="#91268F"/>
<stop offset="1" stop-color="#D91B5B"/>
</linearGradient>
<linearGradient id="paint6_linear_419_644" x1="11.9795" y1="115.665" x2="218.021" y2="115.665" gradientUnits="userSpaceOnUse">
<stop stop-color="#652C90"/>
<stop offset="0.5" stop-color="#91268F"/>
<stop offset="1" stop-color="#D91B5B"/>
</linearGradient>
<linearGradient id="paint7_linear_419_644" x1="11.9795" y1="115.665" x2="218.021" y2="115.665" gradientUnits="userSpaceOnUse">
<stop stop-color="#652C90"/>
<stop offset="0.5" stop-color="#91268F"/>
<stop offset="1" stop-color="#D91B5B"/>
</linearGradient>
<linearGradient id="paint8_linear_419_644" x1="11.9795" y1="115.665" x2="218.021" y2="115.665" gradientUnits="userSpaceOnUse">
<stop stop-color="#652C90"/>
<stop offset="0.5" stop-color="#91268F"/>
<stop offset="1" stop-color="#D91B5B"/>
</linearGradient>
</defs>
</svg>
