<svg width="230" height="231" viewBox="0 0 230 231" fill="none" xmlns="http://www.w3.org/2000/svg">
<path fill-rule="evenodd" clip-rule="evenodd" d="M104.876 12.3792H125.124C142.736 12.379 156.686 12.3789 167.603 13.8467C178.839 15.3573 187.933 18.5401 195.105 25.7119C197.912 28.5188 197.912 33.0697 195.105 35.8766C192.298 38.6835 187.747 38.6835 184.94 35.8766C180.884 31.8208 175.329 29.3898 165.688 28.0935C155.839 26.7694 142.857 26.7542 124.583 26.7542H105.417C87.143 26.7542 74.1608 26.7694 64.3123 28.0935C54.6706 29.3898 49.1157 31.8208 45.0599 35.8766C41.0042 39.9323 38.5732 45.4873 37.2769 55.1289C35.9528 64.9774 35.9375 77.9596 35.9375 96.2333V134.567C35.9375 152.84 35.9528 165.823 37.2769 175.671C38.5732 185.313 41.0042 190.868 45.0599 194.923C49.1157 198.979 54.6706 201.41 64.3123 202.706C74.1608 204.031 87.143 204.046 105.417 204.046H124.583C142.857 204.046 155.839 204.031 165.688 202.706C175.329 201.41 180.884 198.979 184.94 194.923C191.61 188.254 193.629 177.891 193.98 153.629C194.037 149.66 197.302 146.489 201.271 146.547C205.24 146.604 208.411 149.868 208.353 153.837C208.017 177.101 206.511 193.682 195.105 205.088C187.933 212.26 178.839 215.443 167.603 216.953C156.686 218.421 142.736 218.421 125.124 218.421H104.876C87.2642 218.421 73.3144 218.421 62.3969 216.953C51.1612 215.443 42.0671 212.26 34.8952 205.088C27.7234 197.916 24.5406 188.822 23.03 177.586C21.5622 166.669 21.5624 152.719 21.5625 135.107V95.6926C21.5624 78.0808 21.5622 64.131 23.03 53.2135C24.5406 41.9778 27.7234 32.8837 34.8953 25.7119C42.0671 18.5401 51.1612 15.3573 62.3969 13.8467C73.3143 12.3789 87.2642 12.379 104.876 12.3792ZM173.584 67.9199C183.75 57.7545 200.231 57.7545 210.397 67.9199C220.562 78.0854 220.562 94.5669 210.397 104.732L164.825 150.304C162.346 152.784 160.668 154.462 158.79 155.927C156.579 157.651 154.188 159.129 151.658 160.335C149.507 161.36 147.256 162.11 143.929 163.218L123.961 169.874C119.553 171.344 114.692 170.197 111.406 166.911C108.12 163.625 106.973 158.764 108.442 154.355L114.964 134.789C115.009 134.654 115.054 134.52 115.098 134.388C116.207 131.061 116.957 128.81 117.982 126.659C119.188 124.129 120.666 121.737 122.389 119.527C123.855 117.648 125.532 115.971 128.012 113.492C128.111 113.393 128.211 113.293 128.312 113.192L173.584 67.9199ZM200.232 78.0846C195.68 73.5329 188.301 73.5329 183.749 78.0846L182.007 79.8267C182.101 80.1476 182.21 80.4888 182.334 80.8475C183.236 83.4458 184.946 86.8826 188.19 90.1264C191.434 93.3703 194.871 95.0809 197.469 95.9824C197.828 96.1068 198.169 96.2153 198.49 96.3098L200.232 94.5677C204.784 90.016 204.784 82.6363 200.232 78.0846ZM187.512 107.288C184.465 105.688 181.176 103.441 178.026 100.291C174.875 97.1408 172.629 93.8514 171.028 90.8051L138.477 123.357C135.591 126.242 134.579 127.272 133.724 128.368C132.642 129.755 131.715 131.256 130.958 132.843C130.36 134.098 129.892 135.464 128.602 139.335L124.765 150.844L127.473 153.551L138.982 149.715C142.853 148.425 144.219 147.956 145.473 147.358C147.061 146.602 148.562 145.674 149.949 144.592C151.045 143.738 152.074 142.725 154.96 139.84L187.512 107.288ZM69.4792 86.65C69.4792 82.6804 72.6971 79.4625 76.6667 79.4625H138.958C142.928 79.4625 146.146 82.6804 146.146 86.65C146.146 90.6195 142.928 93.8375 138.958 93.8375H76.6667C72.6971 93.8375 69.4792 90.6195 69.4792 86.65ZM69.4792 124.983C69.4792 121.014 72.6971 117.796 76.6667 117.796H100.625C104.595 117.796 107.813 121.014 107.813 124.983C107.813 128.953 104.595 132.171 100.625 132.171H76.6667C72.6971 132.171 69.4792 128.953 69.4792 124.983ZM69.4792 163.317C69.4792 159.347 72.6971 156.129 76.6667 156.129H91.0417C95.0112 156.129 98.2292 159.347 98.2292 163.317C98.2292 167.286 95.0112 170.504 91.0417 170.504H76.6667C72.6971 170.504 69.4792 167.286 69.4792 163.317Z" fill="url(#paint0_linear_266_855)"/>
<defs>
<linearGradient id="paint0_linear_266_855" x1="21.5625" y1="114.606" x2="218.023" y2="114.883" gradientUnits="userSpaceOnUse">
<stop stop-color="#1B75BB"/>
<stop offset="0.5" stop-color="#27A9E1"/>
<stop offset="1" stop-color="#49C0B5"/>
</linearGradient>
</defs>
</svg>
