<svg width="22" height="22" viewBox="0 0 22 22" fill="none" xmlns="http://www.w3.org/2000/svg">
<path fill-rule="evenodd" clip-rule="evenodd" d="M10.2925 2.30809C9.89869 2.82224 9.45429 3.61551 8.80876 4.77355L8.48106 5.36141C8.46131 5.39684 8.44181 5.43194 8.4225 5.4667C8.12176 6.0079 7.86794 6.46469 7.45893 6.77518C7.04552 7.08901 6.54155 7.20227 5.95584 7.3339C5.9182 7.34235 5.88022 7.35089 5.8419 7.35956L5.20555 7.50354C3.95023 7.78757 3.09625 7.98299 2.51131 8.21351C1.94051 8.43845 1.82002 8.62275 1.7741 8.77044C1.72563 8.9263 1.72419 9.1647 2.06543 9.7068C2.41178 10.257 2.99607 10.9432 3.8506 11.9425L4.28442 12.4498C4.30963 12.4793 4.33462 12.5084 4.35935 12.5373C4.76237 13.0074 5.0984 13.3993 5.25254 13.895C5.40575 14.3877 5.35497 14.9054 5.2934 15.5331C5.28962 15.5716 5.28581 15.6105 5.28199 15.6499L5.2164 16.3267C5.08731 17.6589 5.00027 18.5762 5.02971 19.2369C5.05908 19.8965 5.19839 20.0788 5.30914 20.1628C5.40765 20.2376 5.58974 20.3204 6.18297 20.1504C6.78584 19.9777 7.58708 19.6111 8.76251 19.0699L9.35829 18.7956C9.39499 18.7787 9.43139 18.7619 9.46739 18.7452C10.0122 18.4934 10.4848 18.2748 11.0005 18.2748C11.5162 18.2748 11.9888 18.4934 12.5336 18.7452C12.5697 18.7619 12.606 18.7787 12.6427 18.7956L13.2385 19.0699C14.4139 19.6111 15.2152 19.9777 15.8181 20.1504C16.4113 20.3204 16.5934 20.2376 16.6919 20.1628C16.8026 20.0788 16.9419 19.8965 16.9713 19.2369C17.0007 18.5762 16.9137 17.6589 16.7846 16.3267L16.719 15.6499C16.7152 15.6105 16.7114 15.5716 16.7076 15.5331C16.6461 14.9054 16.5953 14.3877 16.7485 13.895C16.9026 13.3993 17.2387 13.0074 17.6417 12.5372C17.6664 12.5084 17.6914 12.4793 17.7166 12.4498L18.1504 11.9425C19.0049 10.9432 19.5892 10.257 19.9356 9.7068C20.2768 9.1647 20.2754 8.9263 20.2269 8.77044C20.181 8.62275 20.0605 8.43845 19.4897 8.21351C18.9048 7.98299 18.0508 7.78757 16.7955 7.50354L16.1591 7.35956C16.1208 7.35089 16.0828 7.34235 16.0452 7.33389C15.4595 7.20227 14.9555 7.08901 14.5421 6.77518C14.1331 6.46469 13.8793 6.0079 13.5785 5.4667C13.5592 5.43194 13.5397 5.39684 13.52 5.36141L13.1923 4.77355C12.5467 3.61551 12.1023 2.82224 11.7086 2.30809C11.3152 1.79443 11.1143 1.75 11.0005 1.75C10.8868 1.75 10.6858 1.79443 10.2925 2.30809ZM9.10159 1.3961C9.57819 0.77363 10.1674 0.25 11.0005 0.25C11.8336 0.25 12.4228 0.77363 12.8995 1.3961C13.3679 2.00773 13.8645 2.89876 14.4715 3.98776L14.8301 4.63106C15.2227 5.33523 15.3231 5.48482 15.4491 5.58044C15.5703 5.67247 15.7267 5.7238 16.4901 5.89654L17.1902 6.05492C18.3658 6.32088 19.3343 6.53999 20.0397 6.81796C20.7719 7.10651 21.4126 7.5318 21.6593 8.32502C21.9034 9.1101 21.629 9.8323 21.205 10.5059C20.793 11.1604 20.1349 11.9298 19.3311 12.8698L18.8566 13.4247C18.3396 14.0292 18.2316 14.1772 18.1808 14.3404C18.1291 14.5069 18.1339 14.6992 18.212 15.5052L18.2836 16.2433C18.4053 17.4994 18.5046 18.5236 18.4698 19.3037C18.4345 20.0977 18.2541 20.8601 17.5989 21.3576C16.9313 21.8643 16.1547 21.8072 15.4049 21.5924C14.6779 21.3841 13.7716 20.9667 12.671 20.46L12.0154 20.1581C11.298 19.8278 11.1444 19.7748 11.0005 19.7748C10.8566 19.7748 10.703 19.8278 9.98569 20.1581L9.32999 20.46C8.22947 20.9667 7.32314 21.3841 6.59614 21.5924C5.84636 21.8072 5.06969 21.8643 4.40217 21.3576C3.74689 20.8601 3.56656 20.0977 3.53119 19.3037C3.49644 18.5236 3.59572 17.4993 3.71746 16.2433L3.78899 15.5052C3.86709 14.6992 3.87196 14.5069 3.8202 14.3404C3.76943 14.1772 3.66143 14.0292 3.14442 13.4247L2.66994 12.8698C1.86609 11.9299 1.20802 11.1604 0.796016 10.5059C0.371976 9.8323 0.097626 9.1101 0.341756 8.32502C0.588426 7.5318 1.22916 7.10651 1.96135 6.81796C2.66671 6.53999 3.63523 6.32088 4.81087 6.05492L4.87453 6.04052L5.51088 5.89654C6.27431 5.72381 6.43072 5.67247 6.55197 5.58044C6.67792 5.48482 6.77834 5.33523 7.17088 4.63106L7.52948 3.98775C8.1365 2.89876 8.63317 2.00773 9.10159 1.3961Z" fill="#1B75BB"/>
</svg>
